<svg xmlns="http://www.w3.org/2000/svg" viewBox="0 0 160 100" fill="none">
  <defs>
    <linearGradient id="ffFire" x1="0%" y1="0%" x2="100%" y2="100%">
      <stop offset="0%" stop-color="#FF6B00"/>
      <stop offset="50%" stop-color="#FF3D00"/>
      <stop offset="100%" stop-color="#FFD600"/>
    </linearGradient>
    <linearGradient id="ffWing" x1="0%" y1="100%" x2="100%" y2="0%">
      <stop offset="0%" stop-color="#E52E06"/>
      <stop offset="100%" stop-color="#FF9100"/>
    </linearGradient>
  </defs>
  <!-- Flame Wing Crest -->
  <path d="M42 22C46 16 54 12 62 10C56 16 56 24 64 26C72 28 82 22 88 15C86 24 82 32 74 38C88 34 98 26 104 18C100 28 92 38 82 44C96 42 108 34 116 25C112 37 100 48 88 52C80 55 70 55 60 51C50 47 44 36 42 22Z" fill="url(#ffWing)" opacity="0.95"/>
  <!-- Central Fire Crest Knife -->
  <path d="M80 6L88 28L80 44L72 28L80 6Z" fill="#FFF" opacity="0.85"/>
  <!-- FREE FIRE Text -->
  <text x="80" y="72" font-family="'Impact', 'Arial Black', sans-serif" font-size="20" font-style="italic" font-weight="900" fill="url(#ffFire)" text-anchor="middle" letter-spacing="1">FREE FIRE</text>
  <!-- Slogan Underline -->
  <rect x="36" y="78" width="88" height="2" fill="url(#ffFire)"/>
</svg>
